Coordinates
version=1
nRows=19
nColumns=24
inDegrees=yes

Units are S.I. units (second, meters, Newtons, ...)
Angles are in degrees.

endheader
time	pelvis_tilt	pelvis_list	pelvis_rotation	pelvis_tx	pelvis_ty	pelvis_tz	hip_flexion_r	hip_adduction_r	hip_rotation_r	knee_angle_r	ankle_angle_r	subtalar_angle_r	mtp_angle_r	hip_flexion_l	hip_adduction_l	hip_rotation_l	knee_angle_l	ankle_angle_l	subtalar_angle_l	mtp_angle_l	lumbar_extension	lumbar_bending	lumbar_rotation
      1.58833333	      0.32777114	      4.24132754	     -4.06120242	      0.42982286	      1.00115068	      0.30731110	     13.26235901	     -4.65664267	      2.85489188	    -63.96593500	      0.11715830	    -18.24590513	      0.65184106	      7.97749711	      9.95970631	     -1.43721714	    -12.87085800	      1.82298895	    -13.58380699	      0.74591019	      0.87040753	     -1.28237079	      5.38687527
      1.59250000	      0.39397725	      4.15352417	     -3.94082632	      0.43443235	      1.00171517	      0.30696732	     13.77842183	     -4.54495344	      2.81892986	    -63.77493735	      0.63074030	    -18.29773058	      0.56765226	      7.45721537	      9.92464018	     -1.26417491	    -12.60838704	      1.91102167	    -13.53517240	      0.71828007	      0.76113934	     -1.19123976	      5.23996744
      1.59666667	      0.50638315	      4.06581180	     -3.82410511	      0.43905853	      1.00233923	      0.30663467	     14.22496628	     -4.43704583	      2.78901386	    -63.52336786	      1.09874009	    -18.24828873	      0.37494632	      6.86487888	      9.89421812	     -1.06127275	    -12.30234581	      1.98450096	    -13.54497567	      0.65075019	      0.59935907	     -1.12281868	      4.94167543
      1.60083333	      0.58748378	      3.98939784	     -3.68920085	      0.44367662	      1.00287631	      0.30626978	     14.69907642	     -4.35163635	      2.73265248	    -63.24359161	      1.57512813	    -18.15432440	      0.13523951	      6.31636904	      9.87088265	     -0.86177862	    -12.01290729	      2.03912712	    -13.54249953	      0.56242832	      0.48842906	     -1.03473053	      4.73945572
      1.60500000	      0.62269772	      3.87149359	     -3.54231413	      0.44822838	      1.00334193	      0.30594689	     15.20816104	     -4.19521488	      2.69145213	    -62.91642679	      2.02573129	    -18.13969948	      0.05595327	      5.84890053	      9.78953908	     -0.67411800	    -11.79237601	      2.14644246	    -13.46226412	      0.53349367	      0.39655637	     -0.91351781	      4.64540127
      1.60916667	      0.73062449	      3.79684694	     -3.41132072	      0.45284597	      1.00387422	      0.30562212	     15.62526927	     -4.10732206	      2.64994994	    -62.54477541	      2.46293234	    -17.96921704	     -0.11496296	      5.26873359	      9.75939223	     -0.49286188	    -11.49762802	      2.23326788	    -13.42074849	      0.46362704	      0.25442518	     -0.85626506	      4.38081925
      1.61333333	      0.76595317	      3.69175470	     -3.25355854	      0.45741433	      1.00430860	      0.30529672	     16.10666768	     -3.97415699	      2.59301601	    -62.13113206	      2.87783822	    -17.91527331	     -0.17156840	      4.79479511	      9.68493571	     -0.30922006	    -11.26125964	      2.32664618	    -13.33810587	      0.44024472	      0.18563750	     -0.74426159	      4.28648664
      1.61750000	      0.87350434	      3.61550725	     -3.11628548	      0.46197296	      1.00478517	      0.30498838	     16.50650387	     -3.87637635	      2.56436914	    -61.69141087	      3.29085253	    -17.70617424	     -0.29044899	      4.22280987	      9.64539349	     -0.11283584	    -10.97701744	      2.42884585	    -13.28606115	      0.38571617	      0.00750175	     -0.67971484	      4.01676084
      1.62166667	      0.91959892	      3.52380554	     -2.95160764	      0.46654226	      1.00517495	      0.30466766	     16.95044364	     -3.76504158	      2.49839751	    -61.20078809	      3.68048981	    -17.58437923	     -0.37308150	      3.73411293	      9.57975005	      0.07671893	    -10.73270439	      2.52339501	    -13.22141811	      0.34621748	     -0.06095422	     -0.59844624	      3.85460071
      1.62583333	      1.00832101	      3.45527417	     -2.80346665	      0.47110596	      1.00558420	      0.30435348	     17.34347661	     -3.68107395	      2.45469861	    -60.68213899	      4.03552538	    -17.39153203	     -0.48464267	      3.18306457	      9.53952318	      0.26186417	    -10.44699101	      2.61907228	    -13.15968758	      0.28983348	     -0.19703482	     -0.53744201	      3.61138966
      1.63000000	      1.06971847	      3.37161464	     -2.63700847	      0.47564778	      1.00593906	      0.30402955	     17.75007987	     -3.58149828	      2.39283625	    -60.12437082	      4.37356490	    -17.24193604	     -0.60379989	      2.67059229	      9.47674779	      0.45263950	    -10.17995299	      2.72191460	    -13.07989993	      0.22845728	     -0.30107702	     -0.44294776	      3.38954747
      1.63416667	      1.14179141	      3.29731249	     -2.47014126	      0.48019086	      1.00630465	      0.30372349	     18.12941039	     -3.49195284	      2.33096900	    -59.52308307	      4.66638064	    -17.09173838	     -0.78212452	      2.14287328	      9.41933303	      0.64374006	     -9.90121663	      2.77804056	    -12.99350601	      0.13440125	     -0.41923666	     -0.38035007	      3.16030855
      1.63833333	      1.15786466	      3.21594417	     -2.29959826	      0.48471222	      1.00654938	      0.30341809	     18.56330707	     -3.38945944	      2.26754093	    -58.90289370	      4.97027978	    -17.03667956	     -0.83246212	      1.69535196	      9.34751449	      0.81655273	     -9.66417068	      2.91296926	    -12.89403814	      0.10960443	     -0.46842353	     -0.29130154	      3.06136422
      1.64250000	      1.24376900	      3.13218273	     -2.12537984	      0.48924084	      1.00690193	      0.30312129	     18.89484721	     -3.29117746	      2.19614866	    -58.22559235	      5.24218574	    -16.94792843	     -0.89537206	      1.15667764	      9.27052570	      0.98929209	     -9.39343029	      3.02032460	    -12.77448392	      0.07743083	     -0.60202384	     -0.21503742	      2.86106712
      1.64666667	      1.32152061	      3.07869821	     -1.97524776	      0.49375982	      1.00718718	      0.30285232	     19.23750779	     -3.22000694	      2.15456114	    -57.53384485	      5.45489172	    -16.86041143	     -1.00710459	      0.62136782	      9.22346630	      1.14429676	     -9.10351053	      3.13151509	    -12.67852432	      0.02054279	     -0.71975647	     -0.17521646	      2.57915992
      1.65083333	      1.36387007	      3.02283076	     -1.80497359	      0.49825054	      1.00739593	      0.30256391	     19.60649054	     -3.15090626	      2.09103349	    -56.81796005	      5.67293452	    -16.82311944	     -1.12458629	      0.13561557	      9.16901665	      1.31663298	     -8.83413904	      3.23832144	    -12.57787025	     -0.03722269	     -0.80208951	     -0.12650126	      2.36707588
      1.65500000	      1.38577563	      2.94908016	     -1.62046588	      0.50273940	      1.00758883	      0.30227995	     19.97419913	     -3.06205991	      2.01103083	    -56.05502884	      5.86330438	    -16.83321936	     -1.19130653	     -0.31796120	      9.08813922	      1.47969336	     -8.58664245	      3.33684947	    -12.44879291	     -0.06652834	     -0.85796625	     -0.05940915	      2.23818809
      1.65916667	      1.45742051	      2.90090211	     -1.46657764	      0.50721978	      1.00779559	      0.30202359	     20.28595518	     -2.99816323	      1.96010048	    -55.27786743	      6.01296086	    -16.86999522	     -1.30406407	     -0.84376348	      9.03490110	      1.62588528	     -8.29383677	      3.45597811	    -12.32535841	     -0.11479146	     -0.97575214	     -0.01972456	      1.98666620
      1.66333333	      1.49274404	      2.84989014	     -1.29677250	      0.51167945	      1.00794642	      0.30176314	     20.62127453	     -2.93152683	      1.89810976	    -54.46904542	      6.14938133	    -16.94581939	     -1.44193262	     -1.31909367	      8.97318975	      1.78255146	     -8.02230273	      3.55529192	    -12.19475637	     -0.17019504	     -1.05477794	      0.02182709	      1.77343140
